<svg height="471" viewBox="0 0 750 471" width="750" xmlns="http://www.w3.org/2000/svg"><g fill="#393939"><path d="m52.8846154 28.2035928c-13.2760757 0-24.0384616 10.5226489-24.0384616 23.502994v367.5868262c0 12.980345 10.7623859 23.502994 24.0384616 23.502994h644.2307696c13.276075 0 24.038461-10.522649 24.038461-23.502994v-367.5868262c0-12.9803451-10.762386-23.502994-24.038461-23.502994zm0-28.2035928h644.2307696c29.207366 0 52.884615 23.1498275 52.884615 51.7065868v367.5868262c0 28.55676-23.677249 51.706587-52.884615 51.706587h-644.2307696c-29.2073666 0-52.8846154-23.149827-52.8846154-51.706587v-367.5868262c0-28.5567593 23.6772488-51.7065868 52.8846154-51.7065868z"/><path d="m321.005415 378.441512-274.005415.098497v-.65983c0-.362429.4370179-2.71391.9706195-5.226046.534558-2.511179 1.364605-6.506497 1.8465678-8.877104.4800503-2.371563 1.3024471-6.400351 1.8255298-8.954563.5240389-2.552299 1.3952058-6.805812 1.9355014-9.45087.5393393-2.644101 1.3846867-6.823025 1.8790811-9.284477.4943944-2.463366 1.3177475-6.49311 1.8322237-8.954563.5135199-2.462409 1.3904244-6.714966 1.947933-9.45087.5565522-2.735904 1.402856-6.914827 1.8809937-9.28639s1.2374203-6.027404 1.687826-8.12356c.4494495-2.098068 1.024171-4.933425 1.2747151-6.301855.2515005-1.367474 1.0652908-5.397218 1.8083168-8.953606.743026-3.556389 1.5615977-7.586133 1.8217047-8.953607.2591506-1.36843 1.0825037-5.398174 1.8303111-8.954563.7468511-3.555432 1.5673353-7.585176 1.8236171-8.953606.2562819-1.367474 1.0815475-5.397219 1.83318-8.953607.753545-3.557344 1.5663791-7.511543 1.8054479-8.788171.2409814-1.276627.8988989-4.559521 1.4631014-7.295425.5632462-2.735904 1.6304495-7.88449 2.3706067-11.440879.7411134-3.557344 2.0072221-9.750183 2.8133622-13.763671.8080527-4.012532 1.7729346-8.787215 2.1449257-10.610832.3710349-1.823617 1.0432965-5.107467 1.4937022-7.296381.4504057-2.188915 1.2670649-6.143114 1.815967-8.787215.5489021-2.646014 1.441107-6.97316 1.9833152-9.618218.5431644-2.644101 1.3789491-6.748435 1.8580431-9.119042.4790939-2.371563 1.2967094-6.325762 1.8169232-8.788171s1.4152876-6.790512 1.9890528-9.617262c.5737653-2.827706 1.5348221-7.154852 2.135363-9.617261.600541-2.46241 1.4497135-5.446945 1.8876876-6.63177.4370179-1.186738 1.6447942-3.755294 2.6833092-5.711833l1.888644-3.554476 1.716514-2.24916c.942887-1.235507 2.628801-3.189178 3.744774-4.340534 1.115974-1.151355 2.997924-2.884126 4.184661-3.849964 1.184826-.966795 2.90134-2.271154 3.81267-2.898471.912287-.627317 2.703391-1.726077 3.980019-2.441371 1.276627-.715294 3.068687-1.651488 3.980018-2.080856.912287-.429367 2.77798-1.2144693 4.145454-1.7432895 1.367474-.5278641 3.979062-1.4143314 5.802679-1.9680148 1.823617-.5546397 5.248039-1.3904244 7.609083-1.8561306 2.361044-.4666624 6.090518-1.0901539 8.290908-1.385643l3.998187-.5374268 274.170851-.1032777 274.169894-.1061466v.65983c0 .3624284-.439887 2.7139096-.976357 5.2250888-.538384 2.5111792-1.436326 6.8048562-1.996704 9.5407592-.561333 2.735904-1.377992 6.691059-1.817879 8.788171-.43893 2.098069-1.27089 6.126857-1.84848 8.953607-.576634 2.827706-1.465014 7.155809-1.972797 9.617262-.507782 2.462409-1.331135 6.492153-1.828398 8.953606-.497263 2.463366-1.325398 6.492154-1.838918 8.954563-.515432 2.462409-1.311053 6.342975-1.771978 8.622735-.460925 2.279761-1.293841 6.383138-1.851349 9.119042-.558465 2.735904-1.454495 7.064007-1.991922 9.617262-.538383 2.553255-1.355998 6.50841-1.818836 8.788171-.464749 2.27976-1.297665 6.383138-1.853261 9.119042-.556553 2.735904-1.45067 7.064006-1.988097 9.618218-.537427 2.553255-1.337829 6.432865-1.779628 8.621779-.440843 2.187958-1.271847 6.292292-1.845612 9.119042-.574721 2.82675-1.40955 6.931084-1.858999 9.120955-.44945 2.187958-1.249852 6.068524-1.779629 8.620823-.531689 2.554211-1.439194 6.956903-2.015828 9.783653-.579503 2.827707-1.406681 6.855539-1.838918 8.954563-.434149 2.096156-1.244114 6.051311-1.802579 8.786258-.557509 2.737817-1.444932 7.064007-1.972796 9.618218-.526908 2.553256-1.35313 6.583-1.837005 8.954563-.481963 2.370607-1.322529 6.474941-1.864737 9.119042-.544121 2.644102-1.431545 6.972204-1.972796 9.616306-.541252 2.645058-1.352174 6.600213-1.80258 8.789127-.450405 2.187958-1.272802 6.217703-1.828398 8.953607-.555596 2.735903-1.460233 7.047749-2.009135 9.580923l-.998351 4.606378-1.189607 3.18631c-.654092 1.752853-1.6381 4.08234-2.187002 5.177275-.546989 1.093023-1.662963 3.024699-2.478665 4.290808-.81666 1.265152-1.954627 2.886039-2.528393 3.602289-.573765.71625-2.301755 2.565687-3.841358 4.111028l-2.795193 2.806668-2.691915 1.912551c-1.480314 1.051903-3.075382 2.121975-3.543 2.377301-.468575.255325-2.252029 1.166656-3.963762 2.022522-1.710777.857779-4.129197 1.947933-5.371399 2.423202-1.243158.477181-3.705567 1.287147-5.471808 1.800667-1.76624.515432-3.659666 1.022258-4.206655 1.126492-.547946.10519-2.446153.497263-4.221.874036-1.773891.375816-5.355142.93715-7.958124 1.246983l-4.733563.563246zm-97.486539-70.874351h7.129989l.200818-.524995c.111884-.288795.201774-.966795.201774-1.50709 0-.541252.235244-2.505442.523083-4.366354.286882-1.862824.9601-6.145982 1.497527-9.519721.53647-3.374696 1.339742-8.448693 1.785366-11.275443.445624-2.827707.989745-6.446253 1.209688-8.042276.218987-1.596024.485788-2.90134.593847-2.90134.107103 0 .568028.704775 1.024171 1.567335l.828135 1.566379 1.837961 1.853262 1.838918 1.851349 2.262547.906549 2.263504.905593 2.696697.349997 2.697653.349041 3.422509-.209425 3.423466-.21038 3.706524-.959145 3.707479-.9601 1.989053-.906549c1.094936-.500132 3.034262-1.58933 4.31089-2.421289l2.321836-1.511872 2.164052-2.164051c1.190563-1.187694 2.869782-3.09642 3.73043-4.239169.86256-1.141793 1.567335-2.15927 1.567335-2.260635 0-.102321.42363-.809009.940975-1.572117.517345-.762151 1.574986-2.879345 2.351482-4.702962.777451-1.823617 1.990009-5.106511 2.697652-7.295425l1.285235-3.980018.664611-3.446417c.365297-1.895338.835785-5.029052 1.045209-6.964554l.379641-3.516224-.219943-2.984536-.218987-2.984535-.692343-2.985492-.691388-2.984536-1.120754-2.233859-1.119799-2.234815-2.164051-2.294105-2.163095-2.294105-2.559949-1.322529-2.55995-1.322529-2.819099-.676086-2.8191-.674174-2.8191-.206556-2.818144-.206555-3.139452.360515-3.141365.360516-2.561861.655049-2.562818.653136-2.227166 1.031821c-1.224032.565159-3.00653 1.528128-3.95898 2.138232-.953407.610104-1.937414 1.311053-2.186045 1.558729-.247676.247675-.843435.707644-1.321573 1.019389l-.871167.570897.608191-2.913771c.335653-1.601762.614885-3.098333.622535-3.327839l.013388-.414067h-6.080955-6.079043l-1.06529 6.715922c-.587154 3.694092-1.512828 9.401144-2.057905 12.684993-.545077 3.282894-1.36843 8.206756-1.827442 10.94266-.459013 2.735904-1.278541 7.586132-1.821705 10.77818-.542208 3.191091-1.438238 8.266044-1.991922 11.275443-.553683 3.009399-1.363648 7.41209-1.801623 9.783653-.437017 2.370607-1.261327 6.846932-1.829354 9.947177-.568028 3.102158-1.482227 8.02602-2.031129 10.944572-.548902 2.917596-1.441107 7.544057-1.983315 10.279961-.543165 2.735904-1.067204 5.311153-1.167613 5.720439l-.180736.746851zm30.69644-38.341862-2.768417.166392-1.809273-.320352-1.81023-.319396-1.837961-.838654-1.838918-.83961-1.283321-1.226901-1.284278-1.224989-.741114-1.658181c-.408329-.912287-.931412-2.461453-1.163787-3.443548l-.422673-1.78441.16926-2.858307.170217-2.857351.853954-4.477281c.469531-2.462409 1.312966-7.08887 1.8743-10.279961.561334-3.192047 1.412419-7.870146 1.8896-10.393757l.867342-4.590122 1.901075-1.58168c1.046166-.869254 2.702435-2.03591 3.681661-2.59055l1.778672-1.009826 2.32088-.718163 2.321837-.719119 2.984536-.174999 2.984535-.174998 2.430852.518301 2.429896.517345 1.715558.789884 1.714602.789883 1.438238 1.445888 1.439194 1.445889.774584 1.530997c.427455.842478 1.027039 2.490141 1.332091 3.662535l.555596 2.131537-.170217 6.301855-.170217 6.300899-.851085 3.724693c-.468575 2.048341-1.359824 5.182056-1.981403 6.963597l-1.129361 3.239861-1.384687 2.622107c-.761195 1.44302-1.934545 3.391909-2.607763 4.331928-.673218.939062-1.747115 2.158313-2.385907 2.705303-.636879.548902-1.706951 1.406681-2.375388 1.9049l-1.215426.907506-2.814318.957231-2.814319.957232zm68.862347 9.116173 3.648191.042077 3.647234-.332784c2.007223-.182649 5.290116-.564203 7.295426-.84726 2.007222-.282102 5.472764-.915156 7.702798-1.404769l4.053651-.892205.202731-1.495615c.110928-.82144.566115-3.267593 1.011739-5.436425l.809965-3.944636-.17978-.177867-.177867-.177868-1.239333.597672c-.681824.328959-2.805712 1.115018-4.718262 1.745203l-3.47893 1.145618-3.65106.7086-3.651059.706688-5.803636.012431-5.803635.009563-1.990009-.634967c-1.093979-.34904-2.703391-.987832-3.57647-1.421025l-1.586461-.785102-1.310097-1.183869-1.310098-1.183869-1.022258-1.785366-1.022258-1.787279-.640705-2.239597-.640704-2.240553-.003826-4.14641-.004781-4.147367.568028-3.697917.56994-3.699829 4.989845-.233331 4.989845-.233332 18.447509.119535 18.446552.117622.556552-2.362001c.306965-1.299578.77554-3.985755 1.041384-5.969071l.483875-3.60707.010519-3.033306.01052-3.034262-.524996-2.265416-.525951-2.26446-.869254-1.49944c-.476226-.82431-1.318704-2.019654-1.869519-2.656533-.550815-.635923-1.534822-1.53291-2.186045-1.992878-.65218-.459969-1.93072-1.233595-2.843007-1.718427l-1.658182-.881686-2.896558-.698081-2.897514-.697125-3.56882-.34139-3.570732-.34139-3.315407.216118-3.316363.215162-3.980019.764064-3.979061.76502-2.488229.99357c-1.367474.546034-3.456936 1.544385-4.641761 2.216647-1.185781.672261-2.82675 1.76624-3.647234 2.430852-.822397.665567-2.243422 1.958452-3.158578 2.873607-.916112.916112-2.27211 2.558993-3.011311 3.653929-.740157 1.094935-1.8743 3.034261-2.521698 4.310889-.646442 1.277584-1.488921 3.067732-1.872388 3.980018-.38251.911331-1.079634 2.777024-1.547253 4.144498-.468575 1.36843-1.203951 3.980018-1.634275 5.804592-.43128 1.823617-1.021302 4.825365-1.312966 6.670977l-.52882 3.356526.005737 4.934381.004782 4.934381.503957 2.156401c.276364 1.184826.807096 2.976886 1.177175 3.979062.370079 1.003133 1.056684 2.495879 1.523347 3.316363.466662.820485 1.465014 2.142057 2.216646 2.936722.751633.794665 2.113369 2.000528 3.025655 2.678528.911331.678955 2.535086 1.634274 3.607071 2.121975l1.949846.887423 2.718691.657918c1.494658.360516 3.751468.788927 5.014708.951494 1.262283.16161 3.936986.313658 5.943251.335652zm6.245435-46.716922c-9.180244 0-16.691787-.065026-16.691787-.14631 0-.079371.392073-1.236464.871167-2.570468.478138-1.333048 1.31966-3.316363 1.867606-4.40843l.999308-1.986184 2.192739-2.181264 2.193696-2.183176 2.156401-1.029909c1.184825-.567071 2.75216-1.184825 3.480842-1.372255.730595-.18743 2.8191-.436062 4.642717-.551771l3.31732-.21325 2.547517.328003 2.545605.327046 1.850393.84726 1.85135.84726 1.015564 1.094935c.557509.601498 1.223076 1.487965 1.478402 1.968971l.462837.875949.306008 1.943151.306965 1.943152-.350953 3.233167-.349997 3.234123zm99.213573 46.718835 3.650103.040164 4.142585-.49057c2.278804-.270626 5.31211-.717206 6.741741-.995482 1.42772-.276364 3.74095-.826222 5.139981-1.220208 1.398074-.395898 2.663227-.823353 2.811449-.949581.148223-.127185.542208-1.632362.877861-3.345052.334696-1.711733.75737-4.008706.938106-5.102685.17978-1.094936.273495-2.048342.207512-2.120063-.066939-.07172-.310789.021038-.543164.204643-.233332.185518-1.859956.870211-3.616634 1.522391l-3.193004 1.185781-4.547089.88073-4.548046.880729-3.865265-.131009-3.866221-.131966-2.196565-.762152-2.196565-.762151-1.696432-1.483183-1.696433-1.485096-1.126492-2.050255-1.12458-2.049298-.537427-2.743554-.535514-2.742598.003825-3.557344.002869-3.558301.651224-4.310889.652179-4.311846.688519-2.321837c.379641-1.276628.809009-2.768417.953406-3.315407.14631-.547945.753545-2.114325 1.352174-3.482755.597672-1.367473 1.664875-3.481798 2.370606-4.698181l1.283322-2.209952 1.576898-1.634275 1.576898-1.634274 1.668701-1.03469 1.670613-1.035647 2.143969-.660786c1.179088-.363385 3.263768-.834828 4.631242-1.047122l2.487272-.388247 3.647235.183605 3.64819.182648 4.31089.863517 4.311846.861604 1.752852.654092c.963926.35956 1.794929.655049 1.847524.655049.050683 0 .282102-1.231683.51352-2.73686.231419-1.504221.642617-3.980018.9142-5.500496.272538-1.522391.429367-2.832488.348084-2.911859-.079371-.080327-1.375124-.285926-2.878389-.4571-1.504221-.171173-5.591342-.475268-9.082704-.677043l-6.348712-.36434-4.477282.343302-4.476325.34426-3.317319.696168-3.315407.697125-2.136319.853954c-1.174306.469531-2.894646 1.317747-3.823189 1.883862-.928544.567072-2.108587 1.328267-2.624976 1.692608-.516389.365297-2.080855 1.788235-3.47893 3.163359l-2.538911 2.499704-1.419113 2.07703c-.779364 1.142749-2.127713 3.523875-2.996967 5.29394l-1.579767 3.216911-1.211601 3.480842c-.665568 1.91542-1.596023 5.049134-2.065555 6.964554l-.855866 3.482755-.31079 3.149971-.309833 3.150928.002869 4.145453.003825 4.144498.312702 2.411727.312702 2.411726.99357 2.480578.992614 2.480579 1.148487 1.793016 1.146574 1.793017 1.823617 1.795885 1.82553 1.794929 1.928807 1.021302 1.93072 1.019389 2.535087.704775c1.393293.386336 3.408165.831004 4.476325.986877 1.068159.155872 3.58412.302183 5.592298.324177zm54.549773-.122403 4.476325-.129097 2.8191-.721032 2.8191-.721988 1.824574-.861604c1.003133-.473356 2.644101-1.40955 3.647234-2.079899s2.55708-1.944108 3.451198-2.830575c.894117-.887424 2.220471-2.400252 2.947241-3.362265.726769-.962969 1.365561-1.706951 1.419112-1.652444.054508.053552-.113796 1.586461-.371991 3.40721-.257238 1.821704-.471443 4.24395-.475269 5.38383l-.005737 2.072249h6.085736 6.086693l.186474-4.724957.185517-4.725913.868298-6.135463c.478138-3.374696 1.249852-8.374103 1.715559-11.109051.464749-2.735904 1.272802-7.361408 1.796841-10.280917.523083-2.918552 1.352173-7.469467 1.84083-10.114525l.891249-4.808152.030601-4.153104.028688-4.154061-.938106-1.919244-.940019-1.920201-1.272803-1.22212-1.274715-1.223077-2.089461-1.058597-2.091375-1.060509-3.116501-.6933-3.116502-.693299-4.289851-.32609-4.290808-.32609-5.526315.342347c-3.040956.187429-7.31742.558464-9.506334.825265l-3.980018.481963-2.711997.010519-2.711997.010519-.394942 1.907769c-.217075 1.048078-.820484 3.539176-1.339742 5.536835-.52117 1.996703-.897943 3.677835-.838653 3.737124.058332.059289 1.509002-.270626 3.222648-.73155 1.713645-.461881 5.355142-1.219252 8.092002-1.685914l4.973588-.84726 4.476326-.183605 4.477281-.185517 2.884127.505869 2.884126.50587 1.924026.949582 1.924983.950537 1.077722 1.606543 1.078679 1.605586-.015301 2.532218-.016256 2.533173-.570897 2.778936-.571853 2.779893-11.932404.043032-11.932404.042077-3.904473 1.071028c-2.147794.589066-4.526051 1.371299-5.285334 1.737552-.759283.36721-1.518565.667481-1.687826.667481-.168304 0-1.445888.707643-2.839182 1.574985l-2.532217 1.573073-1.993834 1.990966c-1.097804 1.094935-2.498748 2.73686-3.114589 3.649147-.615841.91133-1.617062 2.816231-2.22334 4.233431l-1.103542 2.575249-.506826 2.895602-.506826 2.896558v3.038087 3.039044l.482919 2.530304.484832 2.529349.896986 1.649575c.494394.906549 1.4019 2.236728 2.014872 2.953934l1.11693 1.30436 1.982359 1.204907 1.983315 1.204907 2.271154.641661c1.248896.352866 3.149015.781277 4.223868.951494l1.952715.307921 4.477281-.128141zm4.145454-9.273959-2.653664.139616-1.756678-.448493c-.965838-.245763-2.432765-.794665-3.258986-1.219251l-1.500397-.771714-.820484-.974445c-.450406-.536471-1.138924-1.588373-1.530041-2.33905l-.710512-1.365561-.13866-3.187266-.140573-3.188222.56229-1.933589c.308877-1.063378 1.03469-2.909946 1.612281-4.101465l1.04999-2.167876 2.011047-1.995747 2.010091-1.996703 2.134407-1.027996 2.134407-1.02704 2.652707-.631142 2.653665-.630185h8.290907 8.290908l.524039.217074.524039.216119-.440843 2.602981c-.242894 1.430588-.821441 4.019226-1.287147 5.751997-.46475 1.733727-1.285234 4.280288-1.823617 5.660194-.538383 1.380861-.979226 2.601069-.979226 2.711997 0 .111884-.545077 1.116929-1.211601 2.234815l-1.210645 2.033998-1.988096 1.970884c-1.093023 1.082503-2.109544 1.968971-2.25681 1.968971-.14631 0-.816659.373903-1.488921.830047l-1.22212.828134-2.690002.851085-2.689047.850129zm107.943411 9.391581 3.149971.040163 2.985492-.484831c1.641925-.265845 3.73043-.695213 4.642717-.953407.91133-.258194 2.554211-.927587 3.647234-1.487965l1.990966-1.019389 1.711732-1.50709 1.710777-1.50709 1.803536-2.40312c.991657-1.322529 1.888643-2.627845 1.99479-2.902296l.192211-.49822-.167348 1.659138c-.091802.911331-.297401 2.404077-.459012 3.316363-.160654.912287-.389204 2.66514-.509695 3.896823l-.219943 2.237684h6.506498 6.504585v-2.237684-2.238641l.990701-8.4573c.545077-4.651323 1.351217-10.843206 1.791104-13.761759.439887-2.919509 1.119799-7.09652 1.510915-9.285434.389204-2.188914 1.080591-6.14407 1.533866-8.788171.455187-2.644101 1.275671-7.271518 1.824573-10.279961.547946-3.010354 1.426763-7.785038 1.951758-10.611788.524039-2.827706 1.340699-7.230398 1.812142-9.783653.471444-2.553256 1.316792-7.030537 1.878125-9.948133.563246-2.918553 1.381818-7.022887 1.822661-9.120955.441799-2.096156.802315-3.92551.801359-4.061302l.000002-.249587h-7.097478-7.097476l-.209424 2.073205c-.114753 1.13988-.658874 4.907605-1.20682 8.374103-.548902 3.464586-1.443976 8.98612-1.989053 12.269014-.545077 3.282893-1.069116 6.46729-1.165699 7.075481l-.177868 1.105455-.559421-.238113c-.30792-.13101-1.978534-.594803-3.710348-1.029908l-3.149971-.79084-4.31089-.335653-4.311846-.335653-3.64819.339478-3.647235.340434-3.316363.838654-3.316363.837697-3.149971 1.536735-3.151884 1.536734-2.32088 1.717471-2.320881 1.718427-2.005309 2.150663c-1.102586 1.181956-2.694784 3.13754-3.540132 4.345315l-1.533865 2.195609-1.803536 3.750512c-.990701 2.063642-2.197521 4.795721-2.68044 6.072349-.483875 1.277584-1.33496 4.107202-1.894381 6.289423l-1.014608 3.968543-.500132 5.152412-.500132 5.150499.374859 4.145454.376773 4.145454.442755 1.491789c.245763.821441.759283 2.283586 1.144662 3.249424l.699994 1.75859 1.276627 1.727034 1.277584 1.728946 1.457364 1.193431 1.457364 1.194388 1.990009.988789c1.094935.542208 2.930028 1.245071 4.079471 1.559685 1.148486.314615 3.01418.6933 4.145454.83961 1.130317.147267 3.472235.285927 5.205963.306965zm5.654456-9.406881-2.504485.131009-1.688782-.304095c-.9295-.166392-2.416508-.615842-3.305844-.996439l-1.61515-.691387-1.359823-1.115018-1.358868-1.113104-1.009826-1.934545-1.009827-1.934545-.461881-2.155445-.459012-2.156401.039207-4.31089.038251-4.310889.534558-3.814583.534558-3.81267.831003-2.652708c.4571-1.459276.833872-2.836312.835785-3.060081.003825-.222812.453274-1.416244 1.003133-2.651752.548902-1.236464 1.465014-3.142321 2.036866-4.237256.571853-1.094935 1.640969-2.799974 2.374432-3.790676.735376-.990701 2.044517-2.483447 2.90899-3.317319.864473-.831959 2.238641-1.925939 3.056256-2.427983l1.484139-.913243 2.607763-.902724 2.606807-.902724 5.471808-.002869h5.471808l3.149971.874992c1.733727.48005 3.573601 1.037559 4.089034 1.238377l.938106.364341-.182649.910374c-.100409.501088-.49535 2.701478-.875948 4.889436-.380598 2.188914-1.13223 6.367838-1.668701 9.28639-.53647 2.918553-1.36078 7.321245-1.832223 9.782698-.470488 2.462409-1.152312 5.596123-1.515697 6.963597-.362428 1.36843-.874992 3.262812-1.137968 4.210481-.262975.947669-.888379 2.59055-1.390424 3.64819-.502045 1.058597-1.380862 2.596288-1.952714 3.416772-.571853.820485-1.537691 1.958452-2.147795 2.52648-.61106.56994-1.93072 1.579767-2.933853 2.246291l-1.823617 1.212557-2.636451.836741-2.636452.836741zm-488.068618 7.793644h8.05662l.578546-3.564038c.317484-1.961321.939063-5.730003 1.379906-8.374104.440843-2.644102 1.262283-7.569876 1.823617-10.943616.56229-3.374696 1.405725-8.374103 1.873343-11.109051.467619-2.735904 1.211601-6.979854 1.651488-9.430788.440843-2.452846.885511-4.541352.986876-4.643673l.186474-.185518h21.666332 21.665375l.240981.240025.240982.240982-.376773 1.914463c-.205599 1.053816-.816659 4.302283-1.356954 7.220836-.540296 2.918552-1.448758 7.84337-2.019654 10.944572-.568984 3.100244-1.393293 7.502936-1.830311 9.782697-.437974 2.27976-1.323485 7.054444-1.968015 10.611788-.643573 3.556388-1.169525 6.652808-1.167612 6.881358l.003825.414067h8.09009 8.091046l.357647-2.072249c.197949-1.13988.51352-3.192047.704775-4.559521.189342-1.36843.649311-4.279332 1.019389-6.46729.370079-2.187959 1.10928-6.517017 1.643838-9.617262.533601-3.100245 1.428675-8.398011 1.98714-11.772706.558465-3.374696 1.386599-8.298558 1.841787-10.94266.453274-2.646014 1.263239-7.122339 1.797797-9.949089.534558-2.827706 1.425807-7.60239 1.980447-10.612744.554639-3.008443 1.38373-7.560314 1.844655-10.114525.460925-2.553256 1.300534-7.179716 1.866649-10.279961s1.280453-6.718791 1.587418-8.042276l.558464-2.404076h-8.191455-8.192411l-.222812 1.575942c-.121447.865429-.517345 3.291499-.878817 5.388611-.362429 2.098069-1.018434 5.827543-1.460233 8.289952-.441799 2.463365-1.248895 7.163459-1.793972 10.447309-.545077 3.281937-1.239333 7.628208-1.543429 9.657425l-.552727 3.688354-12.025163.24385-12.02612.242894-10.071492-.239069c-5.539703-.131009-10.10305-.265844-10.141301-.296445-.037294-.032513.151092-1.320616.418849-2.864045.268713-1.543428.775539-4.224825 1.127449-5.956639.351909-1.732771 1.019389-5.164844 1.482227-7.628209.463793-2.461453.987832-5.520578 1.166656-6.797206.177867-1.276627.55177-3.403384.830047-4.726869.278276-1.321573.80614-4.107203 1.173349-6.189014.366254-2.081812.757371-4.022095.869255-4.31089l.200818-.525951h-8.125472-8.126429l-.519257 2.902296c-.286883 1.596023-.668437 3.871002-.848217 5.056784-.180736 1.185781-.786058 4.990801-1.345479 8.456343s-1.385643 8.614129-1.836049 11.440879c-.450406 2.827706-1.268977 7.976293-1.819792 11.440879-.552727 3.466498-1.462145 8.837897-2.023479 11.938142-.560377 3.102157-1.372255 7.503893-1.804491 9.783654-.431281 2.27976-1.252721 6.607863-1.826486 9.617261-.572809 3.010355-1.411463 7.262912-1.859956 9.451826-.449449 2.187958-.945756 4.724957-1.102585 5.636287-.158742.912287-.671306 3.543001-1.141793 5.845712-.469532 2.302711-.853954 4.428511-.853954 4.725913v.538383zm89.199456 0h7.132858l.200818-.524039c.111884-.289751.201774-1.046165.201774-1.681132 0-.636879.44945-3.945592.996439-7.352802.548902-3.407209 1.454495-8.954562 2.013916-12.329258.558465-3.37374 1.383731-8.298558 1.834136-10.943616.450406-2.644101 1.249852-7.045837 1.777716-9.783654.527864-2.734947 1.338786-6.98846 1.801623-9.449913.461881-2.462409 1.372255-7.147202 2.021566-10.41097s1.261328-6.063743 1.359824-6.223441l.180736-.291664-7.213185.088934-7.213186.088934-.602453 4.311845c-.328959 2.371563-1.051903 7.072613-1.60463 10.445397-.551771 3.374695-1.387556 8.524238-1.857087 11.440878-.469531 2.919509-1.28619 7.619603-1.816923 10.447309-.530733 2.82675-1.343567 7.153896-1.807361 9.616306-.462837 2.463365-1.29384 6.790511-1.846568 9.617261-.552727 2.827707-1.29384 6.558137-1.647662 8.290908-.354778 1.733727-.73442 3.48658-.845348 3.896822l-.199861.745895zm166.831806 0h7.080263l.212293-2.996011c.117622-1.646706.517345-4.967851.890292-7.378621.372948-2.41077 1.137012-7.217966 1.696433-10.682552.560377-3.466499 1.600805-9.234752 2.312274-12.819828.713381-3.58412 1.517609-7.147203 1.789191-7.917004.272539-.770758.494395-1.60463.494395-1.854218 0-.250544.532645-1.612281 1.182912-3.026612s1.862825-3.579339 2.694784-4.811978l1.511872-2.241509 2.022522-1.8743 2.023479-1.872387 2.494922-1.191519 2.494923-1.192476 3.814582.021038 3.81267.020082 1.875257.559421c1.030864.307921 1.963233.560378 2.072248.560378.109016 0 .197949-.35191.197949-.78319 0-.430324.372948-2.614457.829091-4.854054.455187-2.238641.829091-4.164579.829091-4.280289 0-.115709-1.081548-.539339-2.404076-.940975-1.322529-.401635-3.150928-.822396-4.062258-.936193l-1.658182-.204643-2.155445.381554c-1.185781.209424-2.948197.672261-3.916904 1.028952-.969663.355735-2.569512 1.162831-3.556388 1.793973-.98592.632098-2.520742 1.861868-3.409122 2.733035-.890292.872123-2.385907 2.630713-3.324013 3.907341-.939062 1.276628-1.920201 2.620195-2.181264 2.984536l-.474313.662698.287839-1.325397c.158742-.730595.600541-3.118414.981139-5.306372.380597-2.188915.773627-4.242038.869254-4.559522l.176911-.581415h-6.322893-6.323849v.799446c0 .439887-.373904 3.087814-.829091 5.885875-.456143 2.799018-1.208732 7.475205-1.671569 10.393758-.462838 2.918552-1.285234 7.992549-1.826486 11.275443-.541252 3.282893-1.363649 7.983943-1.827443 10.445396-.463793 2.462409-1.28619 6.790512-1.829354 9.618218-.541252 2.825794-1.44302 7.45321-2.000529 10.27996-.558464 2.827707-1.226901 6.165108-1.484139 7.419741-.259151 1.252721-.469531 2.408858-.469531 2.568556v.291664zm168.074007 0h7.239005v-2.214734-2.216646l.833872-5.494759c.459969-3.020874 1.216383-7.807988 1.683045-10.633782.466662-2.827706 1.047122-6.408958 1.290972-7.960036.244806-1.550123.891248-4.907606 1.437282-7.460861.547946-2.554212 1.22977-5.314022 1.517609-6.135463.287839-.820484.524995-1.682088.527864-1.913507.003825-.231419.620623-1.721296 1.371299-3.310626l1.366517-2.89082 1.803536-2.39547 1.802579-2.394514 1.972796-1.483183c1.084416-.816659 2.829619-1.898206 3.877697-2.405989l1.9049-.922805 4.144498.028688 4.145454.029644 1.632362.523083 1.631406.524039.275407-.170217.274451-.170217.0153-1.057641c.006694-.582371.361472-2.747379.787971-4.812934l.77554-3.754337-.872124-.34139c-.479093-.18743-1.617061-.575678-2.529348-.862561l-1.658181-.523082-2.984536.008606-2.984536.006694-2.432764.856823-2.432765.85491-1.826486 1.101629-1.825529 1.10163-2.375389 2.487272-2.374431 2.486316-1.275672 1.929764c-.70095 1.061465-1.318704 1.88195-1.372255 1.823617-.053551-.057377.328003-2.269242.84726-4.913343.519258-2.645058.951494-5.144762.959144-5.555004l.014344-.746851h-6.135463-6.134506v.212293c0 .115709-.306008 2.242466-.679912 4.724957-.373904 2.483447-1.125536 7.275343-1.667744 10.650039-.544121 3.37374-1.43537 8.820684-1.982359 12.104534-.546033 3.282893-1.370343 7.983943-1.831268 10.446352-.459968 2.461453-1.277584 6.789556-1.816923 9.616306-.539339 2.827706-1.42485 7.379577-1.968015 10.115481-.543164 2.734948-1.264196 6.35445-1.599848 8.04132l-.612017 3.066775zm-320.879165-80.922893 2.012003.006694 1.600805-.545077 1.601761-.545077 1.416244-1.437282 1.4172-1.436326.744939-1.915419.746851-1.914464.025819-2.819099.026776-2.817188-.662699-1.101629-.663655-1.100673-1.154224-.714338-1.155181-.715294h-2.49301-2.49301l-1.697389.760239-1.697389.759283-.984963 1.055728-.984964 1.056684-.774583 1.823617-.773627 1.823618-.14631 2.841094-.145354 2.841094.719119 1.412419.721032 1.411462 1.390424.631142 1.389469.630186z"/></g></svg>